# xmcd
#
# Track frame offsets: 
#        150
#        17472
#        38167
#        57362
#        73917
#        90567
#        103447
#
# Disc length: 1724 seconds
#
# Revision: 0
# Processed by: cddbd v1.5.1PL0 Copyright (c) Steve Scherf et al.
# Submitted via: ExactAudioCopy v0.95a5
#
DISCID=5b06ba07
DTITLE=The Belles - Idle Acres
DYEAR=1900
DGENRE=A Cappella
TTITLE0=Idle Acres
TTITLE1=Left Arm Tan
TTITLE2=These Things Will Kill Me
TTITLE3=Star Witness
TTITLE4=Don't Write, Don't Call
TTITLE5=Birds
TTITLE6=What We Are
EXTD=
EXTT0=
EXTT1=
EXTT2=
EXTT3=
EXTT4=
EXTT5=
EXTT6=
PLAYORDER=
